<?xml version="1.0" encoding="UTF-8" standalone="no"?><!DOCTYPE svg PUBLIC "-//W3C//DTD SVG 1.1//EN" "http://www.w3.org/Graphics/SVG/1.1/DTD/svg11.dtd"><svg width="100%" height="100%" viewBox="0 0 17 51" version="1.1" xmlns="http://www.w3.org/2000/svg" xmlns:xlink="http://www.w3.org/1999/xlink" xml:space="preserve" xmlns:serif="http://www.serif.com/" style="fill-rule:evenodd;clip-rule:evenodd;stroke-linejoin:round;stroke-miterlimit:2;"><path d="M0.962,25.059c1.759,-11.938 5.455,-25.059 7.022,-25.059c1.004,0 2.931,5.339 4.644,12.323c-2.225,0.444 -4.087,0.901 -4.087,0.901c0,0 2.123,0.534 4.542,1.019c1.298,5.649 2.405,12.094 2.783,17.587c-3.081,0.416 -6.413,1.123 -6.413,1.123c0,0 3.435,0.98 6.54,1.606c0.031,1.368 0.002,2.646 -0.095,3.802c0.001,0.012 0.001,0.024 0.001,0.036l-0.001,0.021l0.001,0.067c0,0.222 -0.033,0.441 -0.095,0.654c-0.597,3.988 -5.911,11.072 -7.82,11.072c-1.91,0 -7.304,-7.076 -7.821,-11.072c-0.062,-0.213 -0.094,-0.432 -0.094,-0.654l0,-0.067l0,-0.021c0,-0.012 0,-0.024 0,-0.036c-0.2,-2.968 0.048,-6.817 0.568,-10.93c2.851,-0.429 5.673,-1.038 5.673,-1.038c0,0 -2.617,-0.737 -5.348,-1.334Z" style="fill:#fff;"/></svg>