<?xml version="1.0" encoding="UTF-8" standalone="no"?><!DOCTYPE svg PUBLIC "-//W3C//DTD SVG 1.1//EN" "http://www.w3.org/Graphics/SVG/1.1/DTD/svg11.dtd"><svg width="100%" height="100%" viewBox="0 0 17 100" version="1.1" xmlns="http://www.w3.org/2000/svg" xmlns:xlink="http://www.w3.org/1999/xlink" xml:space="preserve" xmlns:serif="http://www.serif.com/" style="fill-rule:evenodd;clip-rule:evenodd;stroke-linejoin:round;stroke-miterlimit:2;"><path d="M5.787,14.495c0.972,-8.704 1.837,-14.495 2.369,-14.495c0.546,0 1.441,6.098 2.443,15.184c-0.059,0.101 -0.089,0.204 -0.089,0.309c0,0.145 0.058,0.286 0.169,0.422c0.147,1.349 0.296,2.759 0.447,4.222c-0.396,0.241 -0.616,0.509 -0.616,0.791c0,0.32 0.284,0.622 0.787,0.888c0.115,1.139 0.23,2.305 0.346,3.495c-0.717,0.304 -1.133,0.665 -1.133,1.052c0,0.424 0.498,0.816 1.344,1.136c0.096,1.007 0.192,2.028 0.288,3.062c-1.019,0.336 -1.632,0.767 -1.632,1.237c0,0.505 0.707,0.966 1.866,1.311c0.083,0.908 0.165,1.822 0.247,2.743c-1.305,0.353 -2.113,0.842 -2.113,1.382c0,0.573 0.912,1.089 2.362,1.445c0.072,0.828 0.144,1.66 0.215,2.494c-1.574,0.356 -2.577,0.894 -2.577,1.496c0,0.633 1.113,1.197 2.836,1.552c0.064,0.763 0.127,1.528 0.19,2.293c-1.83,0.352 -3.026,0.933 -3.026,1.59c0,0.688 1.311,1.292 3.289,1.638c0.057,0.711 0.114,1.422 0.17,2.13c-2.072,0.341 -3.459,0.96 -3.459,1.667c0,0.737 1.506,1.379 3.723,1.709c0.052,0.668 0.103,1.333 0.153,1.996c-2.301,0.323 -3.876,0.977 -3.876,1.73c0,0.782 1.696,1.457 4.138,1.766c0.046,0.633 0.092,1.262 0.138,1.887c-2.516,0.301 -4.276,0.986 -4.276,1.783c0,0.823 1.879,1.527 4.531,1.811c0.042,0.605 0.084,1.205 0.124,1.8c-2.717,0.275 -4.655,0.988 -4.655,1.824c0,0.861 2.056,1.592 4.9,1.847c0.038,0.585 0.075,1.162 0.112,1.731c-2.903,0.246 -5.012,0.985 -5.012,1.857c0,0.895 2.22,1.649 5.239,1.876c0.034,0.569 0.066,1.129 0.097,1.677c-3.068,0.217 -5.336,0.978 -5.336,1.882c0,0.924 2.367,1.698 5.536,1.896c0.028,0.564 0.053,1.11 0.077,1.639c-3.208,0.19 -5.613,0.969 -5.613,1.901c0,0.945 2.478,1.733 5.758,1.908c0.045,1.546 0.061,2.819 0.043,3.77c-0.083,4.5 -3.654,8.156 -8.155,8.156c-4.502,0 -8.069,-3.656 -8.156,-8.156c-0.019,-0.977 -0.003,-2.294 0.045,-3.898c3.614,-0.094 6.445,-0.926 6.445,-1.936c0,-0.996 -2.754,-1.818 -6.297,-1.931c0.023,-0.509 0.048,-1.034 0.074,-1.575c3.508,-0.122 6.223,-0.94 6.223,-1.929c0,-0.97 -2.61,-1.775 -6.018,-1.921c0.029,-0.523 0.06,-1.055 0.092,-1.597c3.363,-0.157 5.926,-0.956 5.926,-1.917c0,-0.939 -2.445,-1.724 -5.692,-1.905c0.034,-0.537 0.069,-1.081 0.105,-1.632c3.194,-0.192 5.587,-0.97 5.587,-1.899c0,-0.904 -2.267,-1.664 -5.335,-1.882c0.038,-0.555 0.077,-1.115 0.116,-1.679c3.009,-0.228 5.219,-0.981 5.219,-1.874c0,-0.866 -2.081,-1.601 -4.953,-1.852c0.042,-0.577 0.084,-1.158 0.127,-1.742c2.806,-0.262 4.826,-0.988 4.826,-1.841c0,-0.825 -1.889,-1.531 -4.552,-1.813c0.046,-0.606 0.093,-1.214 0.14,-1.824c2.589,-0.292 4.412,-0.987 4.412,-1.798c0,-0.781 -1.693,-1.456 -4.133,-1.765c0.051,-0.641 0.103,-1.283 0.154,-1.926c2.357,-0.318 3.979,-0.98 3.979,-1.744c0,-0.734 -1.494,-1.374 -3.697,-1.705c0.056,-0.685 0.113,-1.369 0.171,-2.053c2.109,-0.338 3.526,-0.963 3.526,-1.678c0,-0.682 -1.292,-1.283 -3.246,-1.63c0.064,-0.739 0.128,-1.476 0.192,-2.21c1.846,-0.351 3.054,-0.935 3.054,-1.595c0,-0.626 -1.088,-1.184 -2.777,-1.54c0.072,-0.806 0.144,-1.607 0.216,-2.403c1.565,-0.357 2.561,-0.893 2.561,-1.492c0,-0.564 -0.883,-1.073 -2.292,-1.428c0.083,-0.892 0.167,-1.774 0.25,-2.646c1.263,-0.351 2.042,-0.831 2.042,-1.361c0,-0.494 -0.675,-0.944 -1.787,-1.287c0.099,-1.005 0.197,-1.991 0.294,-2.958c0.936,-0.329 1.493,-0.742 1.493,-1.191c0,-0.409 -0.465,-0.789 -1.258,-1.102c0.12,-1.165 0.24,-2.296 0.358,-3.387c0.573,-0.28 0.9,-0.603 0.9,-0.946c0,-0.302 -0.252,-0.587 -0.703,-0.842Z" style="fill:#fff;"/></svg>