<?xml version="1.0" encoding="UTF-8" standalone="no"?><!DOCTYPE svg PUBLIC "-//W3C//DTD SVG 1.1//EN" "http://www.w3.org/Graphics/SVG/1.1/DTD/svg11.dtd"><svg width="100%" height="100%" viewBox="0 0 152 196" version="1.1" xmlns="http://www.w3.org/2000/svg" xmlns:xlink="http://www.w3.org/1999/xlink" xml:space="preserve" xmlns:serif="http://www.serif.com/" style="fill-rule:evenodd;clip-rule:evenodd;stroke-linejoin:round;stroke-miterlimit:2;"><path d="M26.064,97.55c-31.462,-20.537 -31.462,-61.61 -15.731,-82.147c15.731,-20.537 47.193,-20.537 78.656,0c23.596,14.376 47.193,51.342 62.924,82.147c-15.731,30.805 -39.328,67.771 -62.924,82.146c-31.463,20.537 -62.925,20.537 -78.656,0c-15.731,-20.536 -15.731,-61.61 15.731,-82.146Zm12.071,41.596c8.476,0 15.357,6.881 15.357,15.357c0,8.476 -6.881,15.358 -15.357,15.358c-8.476,0 -15.358,-6.882 -15.358,-15.358c0,-8.476 6.882,-15.357 15.358,-15.357Zm9.843,-116.635c13.942,0 25.26,11.319 25.26,25.26c0,13.941 -11.318,25.26 -25.26,25.26c-13.941,0 -25.259,-11.319 -25.259,-25.26c0,-13.941 11.318,-25.26 25.259,-25.26Z" style="fill:#fff;"/></svg>