<?xml version="1.0" encoding="UTF-8" standalone="no"?><!DOCTYPE svg PUBLIC "-//W3C//DTD SVG 1.1//EN" "http://www.w3.org/Graphics/SVG/1.1/DTD/svg11.dtd"><svg width="100%" height="100%" viewBox="0 0 98 157" version="1.1" xmlns="http://www.w3.org/2000/svg" xmlns:xlink="http://www.w3.org/1999/xlink" xml:space="preserve" xmlns:serif="http://www.serif.com/" style="fill-rule:evenodd;clip-rule:evenodd;stroke-linejoin:round;stroke-miterlimit:2;"><path d="M67.293,126.732c-14.782,17.946 -16.459,20.519 -24.358,15.584c-4.953,-3.093 -12.348,2.697 -16.66,8.34c-2.736,3.581 -4.784,8.009 -7.691,5.34c-2.562,-2.351 0.019,-4.596 4.159,-8.073c5.242,-4.402 10.688,-12.164 9.9,-17.712c-1.316,-9.277 -14.688,-29.326 8.825,-53.165c-26.926,3.953 -29.591,-32.354 -28.174,-38.306c-14.6,-15.364 -15.09,-33.207 -11.275,-35.774c4.269,-2.873 12.649,-4.874 25.398,-0.079c-9.203,1.493 -15.649,5.093 -6.611,9.119c-10.914,3.541 -3.103,5.014 -1.918,6.424c-7.648,2.812 -4.683,6.844 1.926,6.879c-7.054,3.441 -4.93,8.898 1.44,8.73c-6.249,3.553 -2.965,8.081 5.12,7.936c-8.614,5.099 -6.998,10.096 2.678,9.554c-7.263,5.986 -3.435,7.432 2.873,7.61c-3.881,5.606 -3.279,10.588 4.222,10.133c-6.898,3.05 -4.628,8.09 4.341,7.765c-6.182,10.645 -2.614,8.974 3.507,7.677c-7.377,8.799 -7.211,9.837 -1.545,10.797c-6.745,9.751 -7.337,15.97 -1.245,13.532c-5.009,7.267 -3.125,10.82 2.915,7.21c-3.85,11.127 -0.823,12.882 4.67,8.227c0.02,9.854 3.676,9.406 7.536,4.374c2.102,7.854 5.591,1.73 9.466,-1.932c0.145,-0.138 0.311,-0.207 0.501,-0.19Zm-5.798,-36.274c-6.729,4.221 -5.056,13.138 -8.058,16.239c6.945,-1.136 11.182,0.569 21.394,-9.304c-14.516,4.401 -16.298,2.166 -13.336,-6.935Zm-2.188,-59.826c-10.894,-4.337 -16.9,1.341 -10.34,11.889c-9.101,-5.304 -5.296,-16.031 -10.949,-18.14c6.309,-0.181 9.058,-4.586 21.289,6.251Z" style="fill:#fff;"/></svg>