<?xml version="1.0" encoding="UTF-8" standalone="no"?><!DOCTYPE svg PUBLIC "-//W3C//DTD SVG 1.1//EN" "http://www.w3.org/Graphics/SVG/1.1/DTD/svg11.dtd"><svg width="100%" height="100%" viewBox="0 0 98 157" version="1.1" xmlns="http://www.w3.org/2000/svg" xmlns:xlink="http://www.w3.org/1999/xlink" xml:space="preserve" xmlns:serif="http://www.serif.com/" style="fill-rule:evenodd;clip-rule:evenodd;stroke-linejoin:round;stroke-miterlimit:2;"><path d="M93.648,76.721c8.095,-5.49 8.823,-17.498 -38.821,-56.898c-28.777,-23.798 -46.008,-21.433 -52.808,-16.857c-3.815,2.567 -3.325,20.41 11.275,35.774c-1.417,5.952 1.248,42.259 28.174,38.306c-23.513,23.839 -10.141,43.888 -8.825,53.165c0.788,5.548 -4.658,13.31 -9.9,17.712c-4.14,3.477 -6.721,5.722 -4.159,8.073c2.907,2.669 4.955,-1.759 7.691,-5.34c4.312,-5.643 11.707,-11.433 16.66,-8.34c8.069,5.041 9.645,2.247 25.317,-16.737c11.592,-14.043 18.166,-12.517 25.899,-28.379c4.453,-9.133 2.404,-17.067 -0.503,-20.479Z" style="fill:#fff;"/></svg>